<?xml version="1.0" ?><!DOCTYPE svg  PUBLIC '-//W3C//DTD SVG 1.1//EN'  'http://www.w3.org/Graphics/SVG/1.1/DTD/svg11.dtd'><svg enable-background="new 0 0 128 128" height="128px" id="Layer_1" version="1.1" viewBox="0 0 128 128" width="128px" xml:space="preserve" xmlns="http://www.w3.org/2000/svg" xmlns:xlink="http://www.w3.org/1999/xlink"><g><path d="M62.437,8.178c0.856,0.715,2.258,0.715,3.118,0l8.154-6.802c0.854-0.715,2.016-0.51,2.576,0.455   l5.337,9.181c0.562,0.965,1.879,1.444,2.93,1.065l9.986-3.602c1.051-0.378,2.067,0.21,2.269,1.309l1.877,10.452   c0.195,1.098,1.271,2,2.392,2.003l10.616,0.032c1.113,0.003,1.871,0.906,1.684,2.005l-1.812,10.463   c-0.188,1.1,0.516,2.312,1.562,2.699l9.969,3.662c1.051,0.385,1.448,1.492,0.896,2.46l-5.28,9.213   c-0.558,0.968-0.312,2.349,0.541,3.069l8.112,6.851c0.854,0.72,0.854,1.896,0,2.618l-8.112,6.854   c-0.854,0.719-1.099,2.103-0.541,3.062l5.28,9.215c0.557,0.974,0.152,2.074-0.896,2.459l-9.969,3.662   c-1.047,0.39-1.749,1.604-1.562,2.697l1.812,10.467c0.188,1.104-0.562,2-1.688,2.004l-10.612,0.029   c-1.115,0.004-2.188,0.904-2.392,2.004l-1.877,10.453c-0.193,1.1-1.218,1.688-2.269,1.309l-9.988-3.602   c-1.049-0.379-2.366,0.102-2.928,1.062l-5.337,9.184c-0.562,0.963-1.721,1.168-2.576,0.455l-8.157-6.803   c-0.854-0.715-2.258-0.715-3.115,0.002l-8.155,6.799c-0.857,0.715-2.018,0.51-2.578-0.455l-5.336-9.18   c-0.562-0.967-1.878-1.443-2.929-1.064l-9.989,3.602c-1.049,0.377-2.069-0.211-2.266-1.311l-1.877-10.451   c-0.195-1.1-1.271-2-2.386-2.004l-10.619-0.029c-1.115-0.004-1.873-0.899-1.682-2.004l1.813-10.467   c0.189-1.1-0.512-2.312-1.559-2.697L4.908,86.9c-1.047-0.385-1.449-1.49-0.896-2.459l5.283-9.215   c0.555-0.974,0.311-2.354-0.542-3.066l-8.112-6.85c-0.854-0.726-0.854-1.896,0-2.622l8.112-6.85   c0.854-0.72,1.096-2.101,0.542-3.068L4.013,43.56c-0.554-0.968-0.152-2.075,0.896-2.459l9.967-3.662   c1.047-0.385,1.749-1.599,1.559-2.699l-1.812-10.463c-0.191-1.1,0.566-2.002,1.682-2.005l10.619-0.032   c1.116-0.003,2.189-0.905,2.386-2.003l1.877-10.452c0.196-1.099,1.217-1.688,2.266-1.309l9.989,3.602   c1.051,0.378,2.367-0.101,2.929-1.065l5.336-9.181c0.561-0.965,1.72-1.169,2.578-0.455L62.437,8.178z" fill="#CD2323"/><g enable-background="new    "><path d="M22.814,58.942l6.35-1.351l10.046,12.11l3.979,5.482l0.168-0.035c-0.451-1.429-0.958-3.021-1.521-4.775    c-0.563-1.756-1.018-3.447-1.364-5.074l-2.056-9.674l5.888-1.252l5.829,27.424l-6.351,1.352L33.728,70.999L29.767,65.6    l-0.168,0.034c0.462,1.484,0.969,3.078,1.521,4.777c0.552,1.698,1.001,3.36,1.347,4.987l2.064,9.717l-5.888,1.252L22.814,58.942z" fill="#FFFFFF"/><path d="M50.781,52.997l17.158-3.647l1.107,5.216L58.07,56.899l1.171,5.51l9.336-1.984l1.099,5.175l-9.335,1.983    l1.341,6.31l11.397-2.424l1.108,5.217l-17.581,3.736L50.781,52.997z" fill="#FFFFFF"/><path d="M71.178,48.661l6.352-1.351l4.619,12.428c0.474,1.394,0.959,2.792,1.463,4.194    c0.502,1.402,0.994,2.815,1.474,4.237l0.168-0.036c-0.028-1.517-0.063-3.027-0.104-4.528c-0.041-1.5-0.071-2.995-0.097-4.484    l0.218-13.455l5.258-1.117l5.672,12.203c0.576,1.343,1.152,2.707,1.726,4.094c0.572,1.388,1.158,2.796,1.755,4.222l0.168-0.036    c-0.119-1.526-0.24-3.026-0.361-4.494c-0.12-1.469-0.235-2.939-0.344-4.411l-0.834-13.231l5.93-1.261l0.951,28.463L97.41,71.75    l-5.34-11.877c-0.449-1.019-0.883-2.048-1.295-3.089s-0.795-2.052-1.146-3.03l-0.17,0.035c0.047,1.045,0.094,2.127,0.143,3.246    c0.047,1.118,0.07,2.233,0.072,3.348l0.08,12.994l-7.652,1.627L71.178,48.661z" fill="#FFFFFF"/></g></g></svg>