<?xml version="1.0" ?><!DOCTYPE svg  PUBLIC '-//W3C//DTD SVG 1.1//EN'  'http://www.w3.org/Graphics/SVG/1.1/DTD/svg11.dtd'><svg enable-background="new 0 0 512 512" height="512px" id="Layer_1" version="1.1" viewBox="0 0 512 512" width="512px" xml:space="preserve" xmlns="http://www.w3.org/2000/svg" xmlns:xlink="http://www.w3.org/1999/xlink"><g id="coming_x5F_soon"><path d="M283.206,256.812c-2.412,0-4.448,0.845-6.163,2.534c-1.717,1.689-2.543,3.741-2.543,6.154v55.181   c0,2.413,0.827,4.465,2.543,6.153c1.715,1.689,3.766,2.534,6.178,2.534c2.414,0,4.26-0.845,5.95-2.534   c1.689-1.688,2.329-3.74,2.329-6.153v-55.181c0-2.413-0.647-4.464-2.336-6.154C287.474,257.656,285.62,256.812,283.206,256.812z" fill="#D94545"/><path d="M197.91,177.566c-1.614,0-2.768,0.565-3.916,1.695c-1.148,1.13-1.494,2.502-1.494,4.116v36.909   c0,1.614,0.346,2.986,1.494,4.116c1.147,1.13,2.415,1.695,4.029,1.695c1.614,0,2.819-0.565,3.949-1.695s1.528-2.502,1.528-4.116   v-36.909c0-1.614-0.455-2.986-1.584-4.116S199.524,177.566,197.91,177.566z" fill="#D94545"/><path d="M224.744,256.812c-2.413,0-4.716,0.845-6.432,2.534c-1.717,1.689-2.812,3.741-2.812,6.154v55.181   c0,2.413,1.095,4.465,2.812,6.153c1.716,1.689,3.9,2.534,6.313,2.534c2.414,0,4.558-0.845,6.248-2.534   c1.689-1.688,2.628-3.74,2.628-6.153v-55.181c0-2.413-0.879-4.464-2.568-6.154C229.242,257.656,227.157,256.812,224.744,256.812z" fill="#D94545"/><path d="M31.75,255.5c0-18.842,2.315-37.327,6.802-55.135l-11.415-14.733C20.391,207.734,16.75,231.191,16.75,255.5   c0,24.586,3.717,48.303,10.612,70.624l11.358-14.853C34.126,293.267,31.75,274.567,31.75,255.5z" fill="#FFB03B"/><path d="M479.75,255.5c0,17.828-2.085,35.333-6.108,52.251l11.153,16.167c6.466-21.678,9.956-44.639,9.956-68.418   c0-23.52-3.414-46.24-9.745-67.71l-11.222,16.055C477.714,220.578,479.75,237.881,479.75,255.5z" fill="#FFB03B"/><path d="M67.896,133.5c8.446-13,18.283-25.154,29.462-36.333c42.308-42.308,98.56-65.637,158.392-65.637   c59.833,0,116.084,23.344,158.392,65.652c11.179,11.179,21.016,23.319,29.462,36.319h17.617   C419.536,63.5,343.125,16.618,255.75,16.618S91.964,63.5,50.279,133.5H67.896z" fill="#FFB03B"/><path d="M442.676,379.5c-8.235,12-17.765,23.852-28.534,34.621c-42.308,42.309-98.559,65.494-158.392,65.494   c-59.833,0-116.084-23.128-158.392-65.437C86.589,403.409,77.059,391.5,68.824,379.5H51.121   c41.869,69,117.845,115.458,204.629,115.458S418.51,448.5,460.379,379.5H442.676z" fill="#FFB03B"/><path d="M17.25,148.5l83,107.288l-83,108.712h477l-74.875-108.712L494.25,148.5H17.25z M335.5,183.7   c0-4.483,1.439-8.294,4.595-11.433c3.156-3.138,6.889-4.708,11.337-4.708c4.483,0,8.276,1.579,11.396,4.734   c3.121,3.157,4.672,6.959,4.672,11.406v7.8h-11v-8.015c0-1.614-0.372-2.995-1.52-4.143c-1.148-1.147-2.427-1.722-4.042-1.722   s-2.801,0.574-3.93,1.722c-1.13,1.148-1.509,2.529-1.509,4.143v36.909c0,1.614,0.429,2.986,1.559,4.116s2.434,1.695,4.049,1.695   s2.758-0.563,3.907-1.69c1.147-1.126,1.486-2.495,1.486-4.105V207.5h-5v-11h16v24.001c0,4.484-1.604,8.286-4.76,11.406   s-6.953,4.681-11.365,4.681c-4.483,0-8.162-1.578-11.3-4.735c-3.14-3.156-4.575-6.94-4.575-11.352V183.7z M275.5,168.5h10v67h-10   V168.5z M143.5,183.7c0-4.483,1.618-8.294,4.775-11.433c3.156-3.138,6.978-4.708,11.426-4.708c4.483,0,8.142,1.579,11.262,4.734   c3.121,3.157,4.537,6.959,4.537,11.406v7.8h-10v-8.015c0-1.614-0.693-2.995-1.84-4.143c-1.148-1.147-2.588-1.722-4.202-1.722   c-1.614,0-3.06,0.574-4.19,1.722c-1.13,1.148-1.768,2.529-1.768,4.143v36.909c0,1.614,0.609,2.986,1.739,4.116   s2.524,1.695,4.138,1.695c1.614,0,3.124-0.565,4.272-1.695c1.147-1.13,1.851-2.502,1.851-4.116V211.5h10v9.001   c0,4.484-1.425,8.286-4.58,11.406c-3.157,3.121-6.864,4.681-11.276,4.681c-4.484,0-8.296-1.569-11.435-4.708   c-3.139-3.139-4.71-6.932-4.71-11.379V183.7z M186.07,336.688c-2.467,3.378-5.953,5.765-10.457,7.159   c-2.413,0.75-5.229,1.126-8.446,1.126c-5.953,0-10.887-1.475-14.801-4.425c-3.271-2.413-5.859-5.697-7.762-9.854   c-1.904-4.155-3.017-8.915-3.338-14.277l14.479-1.046c0.644,5.876,2.198,10.134,4.666,12.774c1.822,1.995,3.914,2.938,6.274,2.83   c3.324-0.106,5.979-1.744,7.963-4.911c1.018-1.557,1.528-3.783,1.528-6.682c0-4.187-1.904-8.347-5.711-12.479   c-3.004-2.844-7.508-7.111-13.514-12.801c-5.041-4.885-8.607-9.26-10.698-13.124c-2.252-4.348-3.378-9.071-3.378-14.17   c0-9.178,3.083-16.129,9.25-20.853c3.807-2.844,8.526-4.267,14.157-4.267c5.416,0,10.055,1.207,13.916,3.62   c3.002,1.878,5.43,4.505,7.28,7.883s2.962,7.267,3.338,11.664l-14.559,2.654c-0.43-4.129-1.609-7.346-3.54-9.652   c-1.395-1.662-3.406-2.494-6.033-2.494c-2.789,0-4.907,1.234-6.355,3.7c-1.18,1.984-1.77,4.452-1.77,7.4   c0,4.612,1.983,9.305,5.953,14.077c1.5,1.823,3.753,3.969,6.757,6.435c3.539,2.95,5.872,5.016,6.998,6.194   c3.753,3.754,6.649,7.454,8.688,11.101c0.965,1.717,1.742,3.298,2.333,4.746c1.448,3.593,2.198,6.811,2.252,9.652   C191.647,325.694,189.823,331.7,186.07,336.688z M186.977,231.8c-3.121-3.156-4.477-6.958-4.477-11.406v-36.801   c0-4.483,1.374-8.294,4.531-11.433c3.156-3.138,6.838-4.708,11.25-4.708c4.483,0,8.333,1.579,11.472,4.735   c3.138,3.157,4.747,6.959,4.747,11.406v36.801c0,4.484-1.669,8.295-4.824,11.433c-3.157,3.139-6.902,4.708-11.349,4.708   C193.842,236.535,190.098,234.957,186.977,231.8z M249.5,320.841c0,6.704-2.471,12.401-7.19,17.093   c-4.72,4.693-10.46,7.039-17.109,7.039c-6.704,0-12.213-2.359-16.878-7.079c-4.666-4.718-6.823-10.402-6.823-17.053V265.82   c0-6.703,2.157-12.4,6.876-17.093c4.718-4.692,10.275-7.039,16.871-7.039c6.703,0,12.461,2.36,17.154,7.079   c4.692,4.72,7.099,10.404,7.099,17.053V320.841z M249.549,235.5h-8.178l-9.871-42.062V235.5h-10v-67h14.448l9.477,48.467   l9.097-48.467H268.5v67h-10v-42.169L249.549,235.5z M307.5,320.841c0,6.704-2.24,12.401-6.958,17.093   c-4.719,4.693-10.344,7.039-16.993,7.039c-6.703,0-12.385-2.359-17.052-7.079c-4.665-4.718-6.996-10.402-6.996-17.053V265.82   c0-6.703,2.388-12.4,7.107-17.093c4.719-4.692,10.391-7.039,16.987-7.039c6.703,0,12.288,2.36,16.981,7.079   c4.691,4.72,6.925,10.404,6.925,17.053V320.841z M303.5,192.523V235.5h-10v-67h11.022l13.978,45.102V168.5h10v67h-11.235   L303.5,192.523z M370.5,343.5h-16.123L333.5,279.173V343.5h-15v-101h16.828l20.172,68.187V242.5h15V343.5z" fill="#D94545"/><path d="M283.185,86.909c-3.897-3.799-6.333-11.295-5.413-16.659l1.415-8.25c0.92-5.364-2.268-7.68-7.085-5.148   l-7.409,3.895c-4.817,2.532-12.699,2.532-17.516,0l-7.409-3.895c-4.817-2.532-8.005-0.216-7.085,5.148l1.415,8.25   c0.92,5.364-1.516,12.86-5.413,16.659l-5.994,5.843c-3.897,3.799-2.679,7.547,2.706,8.33l8.284,1.204   c5.386,0.783,11.762,5.416,14.171,10.296l3.705,7.506c2.409,4.88,6.35,4.88,8.758,0l3.705-7.506   c2.409-4.88,8.785-9.513,14.171-10.296l8.284-1.204c5.386-0.783,6.603-4.531,2.706-8.33L283.185,86.909z" fill="#FFB03B"/><path d="M202.246,96.908l-5.045-2.438c-3.28-1.585-6.417-5.827-6.971-9.427l-0.852-5.538   c-0.554-3.6-3.07-4.395-5.59-1.765l-3.877,4.045c-2.521,2.63-7.525,4.302-11.12,3.716l-5.53-0.901   c-3.595-0.586-5.128,1.561-3.406,4.771l2.649,4.938c1.722,3.21,1.766,8.486,0.098,11.724l-2.566,4.981   c-1.668,3.238-0.1,5.359,3.485,4.714l5.514-0.993c3.585-0.646,8.616,0.943,11.181,3.53l3.944,3.979   c2.564,2.587,5.066,1.751,5.56-1.858l0.759-5.551c0.494-3.609,3.559-7.903,6.812-9.543l5.004-2.522   C205.548,101.131,205.526,98.493,202.246,96.908z" fill="#FFB03B"/><path d="M349.267,106.033c-1.668-3.238-1.624-8.514,0.098-11.724l2.649-4.938c1.722-3.21,0.189-5.357-3.406-4.771   l-5.53,0.901c-3.595,0.586-8.599-1.086-11.12-3.716l-3.877-4.045c-2.521-2.63-5.036-1.835-5.59,1.765l-0.852,5.538   c-0.554,3.6-3.691,7.843-6.971,9.427l-5.045,2.438c-3.28,1.585-3.302,4.223-0.049,5.862l5.004,2.522   c3.253,1.639,6.318,5.934,6.812,9.543l0.759,5.551c0.494,3.609,2.996,4.445,5.56,1.858l3.944-3.979   c2.564-2.587,7.596-4.175,11.181-3.53l5.514,0.993c3.585,0.646,5.153-1.475,3.485-4.714L349.267,106.033z" fill="#FFB03B"/><path d="M283.185,423.881c-3.897,3.799-6.333,11.295-5.413,16.659l1.415,8.25c0.92,5.364-2.268,7.68-7.085,5.148   l-7.409-3.895c-4.817-2.532-12.699-2.532-17.516,0l-7.409,3.895c-4.817,2.532-8.005,0.216-7.085-5.148l1.415-8.25   c0.92-5.364-1.516-12.86-5.413-16.659l-5.994-5.843c-3.897-3.799-2.679-7.547,2.706-8.33l8.284-1.204   c5.386-0.783,11.762-5.416,14.171-10.296l3.705-7.506c2.409-4.88,6.35-4.88,8.758,0l3.705,7.506   c2.409,4.88,8.785,9.513,14.171,10.296l8.284,1.204c5.386,0.783,6.603,4.531,2.706,8.33L283.185,423.881z" fill="#FFB03B"/><path d="M202.246,413.881l-5.045,2.438c-3.28,1.585-6.417,5.827-6.971,9.427l-0.852,5.538   c-0.554,3.6-3.07,4.395-5.59,1.765l-3.877-4.045c-2.521-2.63-7.525-4.302-11.12-3.716l-5.53,0.901   c-3.595,0.586-5.128-1.561-3.406-4.771l2.649-4.938c1.722-3.21,1.766-8.486,0.098-11.724l-2.566-4.981   c-1.668-3.238-0.1-5.359,3.485-4.714l5.514,0.993c3.585,0.646,8.616-0.943,11.181-3.53l3.944-3.979   c2.564-2.587,5.066-1.751,5.56,1.858l0.759,5.551c0.494,3.609,3.559,7.903,6.812,9.543l5.004,2.522   C205.548,409.659,205.526,412.296,202.246,413.881z" fill="#FFB03B"/><path d="M349.267,404.756c-1.668,3.238-1.624,8.514,0.098,11.724l2.649,4.938c1.722,3.21,0.189,5.357-3.406,4.771   l-5.53-0.901c-3.595-0.586-8.599,1.086-11.12,3.716l-3.877,4.045c-2.521,2.63-5.036,1.835-5.59-1.765l-0.852-5.538   c-0.554-3.6-3.691-7.843-6.971-9.427l-5.045-2.438c-3.28-1.585-3.302-4.223-0.049-5.862l5.004-2.522   c3.253-1.639,6.318-5.934,6.812-9.543l0.759-5.551c0.494-3.609,2.996-4.445,5.56-1.858l3.944,3.979   c2.564,2.587,7.596,4.175,11.181,3.53l5.514-0.993c3.585-0.646,5.153,1.475,3.485,4.714L349.267,404.756z" fill="#FFB03B"/></g></svg>