<?xml version="1.0" ?><!DOCTYPE svg  PUBLIC '-//W3C//DTD SVG 1.1//EN'  'http://www.w3.org/Graphics/SVG/1.1/DTD/svg11.dtd'><svg enable-background="new 0 0 90 90" id="Layer_1" version="1.1" viewBox="0 0 90 90" xml:space="preserve" xmlns="http://www.w3.org/2000/svg" xmlns:xlink="http://www.w3.org/1999/xlink"><g><g><circle cx="45" cy="45" fill="#cccccc" r="44.5"/></g><g><rect fill="#FFFFFF" height="24.7" transform="matrix(0.9651 -0.262 0.262 0.9651 -11.8477 14.4916)" width="64.3" x="16.3" y="39.3"/><path d="M19.9,73.2l-7-25.8l63.9-17.4l7,25.8L19.9,73.2z M15.4,48.9l6,21.9l60.1-16.3l-6-21.9L15.4,48.9z" fill="#010101"/></g><g><path d="M18.9,47.8l20.6-28.7l32.3,14.3L18.9,47.8z M40.2,21.5L23.8,44.4L66,32.9L40.2,21.5z" fill="#010101"/></g><g><circle cx="39.9" cy="20.3" fill="#cccccc" r="6"/><path d="M39.9,27.3c-3.1,0-5.9-2.1-6.7-5.1c-1-3.7,1.2-7.5,4.9-8.5c0.6-0.2,1.2-0.2,1.8-0.2c3.1,0,5.9,2.1,6.7,5.1    c1,3.7-1.2,7.5-4.9,8.5C41.1,27.2,40.5,27.3,39.9,27.3z M39.9,15.3c-0.4,0-0.9,0.1-1.3,0.2c-2.7,0.7-4.2,3.5-3.5,6.1    c0.6,2.2,2.6,3.7,4.8,3.7c0.4,0,0.9-0.1,1.3-0.2c2.7-0.7,4.2-3.5,3.5-6.1C44.1,16.8,42.2,15.3,39.9,15.3z" fill="#010101"/></g><g><path d="M25.9,53.6c-0.2,0.3-0.3,0.7-0.2,1c0.1,0.4,0.4,0.6,0.8,0.8c0.4,0.1,1.3,0.2,2.6,0.2    c1.3,0,2.4,0.2,3.3,0.6c0.9,0.4,1.4,1.2,1.8,2.4c0.3,1.2,0.1,2.3-0.5,3.2c-0.7,1-1.7,1.7-3.2,2c-2.1,0.6-4.2,0.3-6.2-0.8l1.2-2.6    c1.8,0.9,3.2,1.1,4.4,0.8c0.5-0.1,0.9-0.4,1.2-0.7c0.2-0.3,0.3-0.7,0.2-1.1c-0.1-0.4-0.4-0.7-0.7-0.8c-0.4-0.1-1.1-0.2-2.1-0.2    c-1.6,0.1-2.9-0.1-3.7-0.5c-0.9-0.4-1.5-1.2-1.8-2.5c-0.3-1.2-0.2-2.3,0.6-3.3c0.7-0.9,1.7-1.6,3.1-1.9c0.9-0.2,1.8-0.3,2.8-0.3    c1,0.1,1.8,0.3,2.6,0.7l-0.9,2.5c-1.4-0.6-2.7-0.7-3.9-0.3C26.4,53.1,26.1,53.3,25.9,53.6z" fill="#010101"/></g><g><path d="M48.2,56.9c-1,1.7-2.4,2.8-4.4,3.3c-1.9,0.5-3.8,0.3-5.4-0.6c-1.7-0.9-2.8-2.4-3.3-4.3    c-0.5-1.9-0.3-3.7,0.7-5.4c1-1.7,2.4-2.7,4.4-3.3c1.9-0.5,3.8-0.3,5.4,0.6c1.7,0.9,2.8,2.4,3.3,4.3C49.4,53.5,49.2,55.3,48.2,56.9    z M45.9,52.4c-0.3-1.2-1-2.1-1.9-2.7c-1-0.6-2-0.8-3.1-0.5c-1.1,0.3-1.9,1-2.4,2c-0.5,1-0.6,2.1-0.3,3.3c0.3,1.2,1,2.1,1.9,2.7    c1,0.6,2,0.8,3.1,0.5c1.1-0.3,1.9-1,2.4-2C46.1,54.6,46.2,53.5,45.9,52.4z" fill="#010101"/></g><g><path d="M53.2,57.5l-3.6-13.1l2.9-0.8l2.9,10.5l5.6-1.5l0.7,2.6L53.2,57.5z" fill="#010101"/></g><g><path d="M70.8,40.5c1.6,0.8,2.6,2.2,3.2,4.3c0.6,2,0.4,3.8-0.5,5.3c-0.9,1.5-2.6,2.6-5.1,3.3l-4.5,1.2l-3.6-13.1    l4.6-1.3C67.3,39.6,69.2,39.7,70.8,40.5z M70.7,48.9c0.5-0.9,0.6-2,0.3-3.2c-0.4-1.3-1-2.2-1.9-2.7c-0.9-0.5-2.1-0.5-3.6-0.1    l-1.6,0.4l2.2,8l1.9-0.5C69.3,50.4,70.2,49.8,70.7,48.9z" fill="#010101"/></g></g></svg>